<?xml version="1.0" encoding="UTF-8" standalone="no"?>
<!-- Created with Inkscape (http://www.inkscape.org/) -->

<svg
   xmlns:dc="http://purl.org/dc/elements/1.1/"
   xmlns:cc="http://creativecommons.org/ns#"
   xmlns:rdf="http://www.w3.org/1999/02/22-rdf-syntax-ns#"
   xmlns:svg="http://www.w3.org/2000/svg"
   xmlns="http://www.w3.org/2000/svg"
   xmlns:sodipodi="http://sodipodi.sourceforge.net/DTD/sodipodi-0.dtd"
   xmlns:inkscape="http://www.inkscape.org/namespaces/inkscape"
   width="50mm"
   height="56.529999mm"
   viewBox="0 0 50 56.529999"
   version="1.1"
   id="svg8"
   sodipodi:docname="zawa.svg"
   inkscape:version="0.92.4 (5da689c313, 2019-01-14)">
  <defs
     id="defs2" />
  <sodipodi:namedview
     id="base"
     pagecolor="#ffffff"
     bordercolor="#666666"
     borderopacity="1.0"
     inkscape:pageopacity="0.0"
     inkscape:pageshadow="2"
     inkscape:zoom="2.5970723"
     inkscape:cx="61.311435"
     inkscape:cy="129.30924"
     inkscape:document-units="mm"
     inkscape:current-layer="layer5"
     showgrid="false"
     inkscape:snap-bbox="true"
     inkscape:bbox-nodes="true"
     inkscape:snap-bbox-midpoints="false"
     inkscape:snap-intersection-paths="true"
     inkscape:object-paths="false"
     inkscape:window-width="1920"
     inkscape:window-height="1016"
     inkscape:window-x="0"
     inkscape:window-y="27"
     inkscape:window-maximized="1" />
  <metadata
     id="metadata5">
    <rdf:RDF>
      <cc:Work
         rdf:about="">
        <dc:format>image/svg+xml</dc:format>
        <dc:type
           rdf:resource="http://purl.org/dc/dcmitype/StillImage" />
        <dc:title></dc:title>
      </cc:Work>
    </rdf:RDF>
  </metadata>
  <g
     inkscape:label="Layer 1"
     inkscape:groupmode="layer"
     id="layer1"
     style="display:inline"
     transform="translate(0,-240.47)">
    <path
       style="fill:none;stroke-width:0.26458332"
       id="path3719"
       d="m 34.121923,-282.83786 c -0.0013,-0.003 -0.0029,-0.007 -0.0035,-0.0103 -5.29e-4,-0.003 -2.65e-4,-0.004 -5.29e-4,-0.007 0.0013,-0.0127 0.0078,-0.0243 0.01368,-0.0354 0.01095,-0.019 0.02379,-0.0371 0.03775,-0.0541 0.0038,-0.005 0.0077,-0.009 0.01151,-0.0135 0.02392,-0.027 0.05076,-0.0514 0.07934,-0.0733 0.0061,-0.005 0.01244,-0.009 0.01865,-0.0138 0.02688,-0.0188 0.05498,-0.0358 0.08458,-0.0498 0.0145,-0.007 0.0176,-0.008 0.03218,-0.0132 0.01201,-0.004 0.02432,-0.008 0.03704,-0.008 0.0056,-2.4e-4 0.01103,1.3e-4 0.01627,0.003 0.0021,0 0.0038,0.003 0.0057,0.003 0.0013,0.003 0.003,0.003 0.0042,0.005 0.0081,0.0122 -7.94e-4,0.0303 -0.0057,0.0419 -0.0021,0.004 -0.0042,0.009 -0.0065,0.013 -0.0088,0.0164 -0.01855,0.0325 -0.02836,0.0484 -7.94e-4,0 -0.02434,0.0392 -0.02458,0.0395 -0.02106,0.0344 -0.04169,0.0692 -0.05762,0.10636 -0.0028,0.006 -0.0053,0.0132 -0.0079,0.0196 -0.0059,0.0167 -0.01125,0.0338 -0.01275,0.0515 -7.93e-4,0.009 -5.29e-4,0.018 0.0019,0.0265 0.0011,0.004 0.0029,0.007 0.0043,0.0106 0.0021,0.003 0.0041,0.006 0.0067,0.009 0.01328,0.013 0.03356,0.0161 0.05132,0.0167 0.0062,1.6e-4 0.01252,0 0.01876,0 0.007,0 0.01402,0 0.02101,-0.003 0.02503,-0.003 0.04973,-0.009 0.07426,-0.0148 7.94e-4,-2.1e-4 0.05476,-0.0135 0.05527,-0.0135 0.04283,-0.01 0.08622,-0.0198 0.130418,-0.0209 0.007,-1.6e-4 0.01389,2.1e-4 0.02085,0 0.01524,0.003 0.01966,0.003 0.03405,0.005 0.0045,0 0.0088,0.003 0.0132,0.005 0,0 -0.01124,0.008 -0.01124,0.008 v 0 c -0.0043,-0.003 -0.0085,-0.003 -0.01289,-0.005 -0.01413,-0.004 -0.01834,-0.004 -0.03335,-0.005 -0.0069,-1.6e-4 -0.01368,0 -0.02053,0 -0.04393,0 -0.08708,0.0106 -0.12964,0.0206 -0.0185,0.005 -0.03695,0.009 -0.05547,0.0138 -0.02479,0.006 -0.04972,0.0116 -0.07501,0.0151 -0.0071,0 -0.01421,0.003 -0.0213,0.003 -0.0064,1.9e-4 -0.01273,0 -0.0191,0 -0.01826,0 -0.03902,-0.004 -0.05258,-0.0172 -0.0027,-0.003 -0.0046,-0.006 -0.0069,-0.009 -0.0013,-0.004 -0.0033,-0.007 -0.0043,-0.0109 -0.0024,-0.009 -0.0024,-0.0183 -0.0016,-0.027 0.0016,-0.018 0.0073,-0.0352 0.01331,-0.0521 0.0027,-0.007 0.0052,-0.0132 0.008,-0.0198 0.01609,-0.0371 0.03672,-0.072 0.0577,-0.10654 0.0046,-0.007 0.01942,-0.0315 0.02418,-0.0394 0.0096,-0.0159 0.0191,-0.0316 0.02759,-0.048 0.0021,-0.004 0.0042,-0.008 0.0062,-0.0127 0.0045,-0.0106 0.0132,-0.0287 0.0057,-0.0401 -0.0011,-0.003 -0.0026,-0.003 -0.0038,-0.004 -0.0019,0 -0.0035,-0.003 -0.0054,-0.003 -0.005,-0.003 -0.01035,-0.003 -0.01564,-0.003 -0.01244,0 -0.02445,0.004 -0.03618,0.008 -0.0051,0.003 -0.01021,0.004 -0.01521,0.006 -0.01407,0.006 -0.02029,0.009 -0.03406,0.0161 -0.0026,0.003 -0.0053,0.003 -0.0078,0.004 -0.01778,0.0103 -0.02066,0.0127 -0.03789,0.0243 -0.0062,0.005 -0.01254,0.009 -0.01868,0.0138 -0.0284,0.0217 -0.05504,0.046 -0.07872,0.0728 -0.0038,0.004 -0.0076,0.009 -0.01132,0.0135 -0.01371,0.0169 -0.02625,0.0346 -0.03693,0.0534 -0.0057,0.0109 -0.01185,0.022 -0.01333,0.0344 0,0.003 -1.16e-4,0.004 2.65e-4,0.007 5.29e-4,0.003 0.0019,0.007 0.0035,0.01 0,0 -0.01328,0.008 -0.01328,0.008 z"
       inkscape:connector-curvature="0" />
    <path
       style="fill:none;stroke-width:0.26458332"
       id="path3721"
       d="m 34.575509,-282.86998 c -0.006,2.4e-4 -0.01204,-3e-5 -0.01804,-1.3e-4 -0.0084,-3e-5 -0.01685,0 -0.02527,-0.003 -0.01042,0 -0.02088,-0.003 -0.03136,0 -0.015,0 -0.02991,0.003 -0.04482,0.004 -0.01828,0.003 -0.0366,0.004 -0.0549,0.005 -0.02021,0.003 -0.04044,0.003 -0.06068,0.005 -0.0218,0.003 -0.04356,0.003 -0.06533,0.005 -0.02289,0.003 -0.04583,0.004 -0.06874,0.006 -0.02146,0.003 -0.04294,0.003 -0.06443,0.004 -0.01839,0 -0.0368,0 -0.05519,1.5e-4 -0.01484,0 -0.02967,-0.003 -0.0444,-0.003 -0.008,-0.003 -0.01593,-0.003 -0.02363,-0.005 -0.0042,-0.003 -0.0051,-0.003 -0.0091,-0.003 -0.0058,-0.003 -0.01119,-0.006 -0.0154,-0.0111 -7.94e-4,0 -0.0016,-0.003 -0.0021,-0.003 -0.0043,-0.006 -0.0066,-0.0132 -0.0078,-0.0206 -0.0011,-0.008 0.0016,-0.0164 0.0042,-0.0243 0.0034,-0.009 0.0079,-0.0167 0.01339,-0.0241 0.0065,-0.009 0.01569,-0.0143 0.02471,-0.0198 0.01987,-0.0116 0.04003,-0.0227 0.0601,-0.0339 0.02178,-0.0122 0.0439,-0.0241 0.06587,-0.0359 0.02498,-0.014 0.05025,-0.0274 0.07595,-0.04 0.02365,-0.0116 0.04795,-0.0217 0.07269,-0.0307 0.01275,-0.005 0.02577,-0.009 0.03927,-0.0106 0.0016,-1.9e-4 0.0033,-2.4e-4 0.0049,0 0.0038,1.1e-4 0.0089,2.6e-4 0.01071,0.004 0.0011,0.003 5.29e-4,0.004 2.65e-4,0.006 -5.29e-4,0.003 -7.94e-4,0.003 -0.0013,0.004 -0.0021,0.007 -0.0054,0.0127 -0.0084,0.019 -0.0066,0.0138 -0.0016,0.003 -0.0085,0.018 -0.0087,0.019 -0.01754,0.0383 -0.02429,0.0583 -0.0013,0.004 -0.0024,0.008 -0.0037,0.0116 0,0 -0.01246,0.006 -0.01246,0.006 v 0 c 0.0013,-0.004 0.0024,-0.008 0.0037,-0.0119 0.0067,-0.0198 0.01548,-0.039 0.02392,-0.0582 0.006,-0.0132 0.0024,-0.006 0.0082,-0.018 0.0028,-0.006 0.0058,-0.0122 0.008,-0.0185 5.29e-4,0 7.94e-4,-0.003 0.0011,-0.004 2.28e-4,-0.003 7.94e-4,-0.003 3.2e-5,-0.005 -0.0016,-0.003 -0.0066,-0.003 -0.0096,-0.003 -0.0016,1e-4 -0.0032,1.8e-4 -0.0048,0 -0.01326,0.003 -0.02598,0.006 -0.03852,0.0103 -0.02461,0.009 -0.04872,0.019 -0.07222,0.0305 -0.02572,0.0127 -0.051,0.0262 -0.07604,0.0401 -0.02207,0.0119 -0.04429,0.0238 -0.06615,0.0361 -0.0089,0.005 -0.01788,0.01 -0.02684,0.0151 -0.0026,0.003 -0.0052,0.003 -0.0078,0.005 -0.0024,0 -0.0046,0.003 -0.0071,0.004 -0.0021,0 0.0041,-0.003 0.0061,-0.003 -0.0089,0.006 -0.01812,0.0109 -0.02466,0.0193 -0.0011,0 -0.0019,0.003 -0.0028,0.004 -0.0044,0.006 -0.0077,0.0132 -0.01082,0.0201 -0.0027,0.008 -0.0052,0.0156 -0.0044,0.0238 0.0011,0.007 0.0033,0.0138 0.0075,0.0201 7.94e-4,0 0.0013,0.003 0.0021,0.003 0.0041,0.005 0.0094,0.008 0.01495,0.0109 0.0039,0.003 0.0048,0.003 0.0089,0.003 0.0076,0.003 0.01548,0.004 0.02334,0.005 0.01463,0.003 0.02939,0.003 0.04413,0.003 0.01831,0 0.03661,0 0.0549,-8e-5 0.02146,0 0.04289,-0.003 0.06429,-0.004 0.02291,-0.003 0.04585,-0.003 0.06874,-0.006 0.0218,-0.003 0.0436,-0.004 0.06542,-0.005 0.02027,-0.003 0.04052,-0.003 0.06079,-0.005 0.01834,-0.003 0.03668,-0.003 0.05499,-0.006 0.01503,-0.003 0.03008,-0.003 0.0452,-0.004 0.01056,-2.6e-4 0.02109,3e-5 0.03158,0 0.0084,0 0.01685,0.003 0.02532,0.003 0.0061,8e-5 0.01217,0 0.01823,-2.4e-4 0,0 -0.0123,0.009 -0.0123,0.009 z"
       inkscape:connector-curvature="0" />
    <path
       style="opacity:1;fill:#03e7b1;fill-opacity:1;stroke:#014027;stroke-width:1.00000012;stroke-opacity:1"
       d="m 49.500002,265.48871 a 24.500002,24.5 0 0 1 -24.5,24.49999 A 24.500002,24.5 0 0 1 0.5,265.48871 24.500002,24.5 0 0 1 25.000002,240.9887 a 24.500002,24.5 0 0 1 24.5,24.50001 z"
       id="path3738"
       inkscape:connector-curvature="0" />
  </g>
  <g
     inkscape:groupmode="layer"
     id="layer5"
     inkscape:label="Layer 4"
     style="display:inline"
     transform="translate(0,-240.47)">
    <path
       style="opacity:1;fill:#ffcc00;stroke:none;stroke-width:0.26499999;stroke-miterlimit:4;stroke-dasharray:none"
       d="m 41.845249,255.24493 c -0.796317,0.41184 -1.237806,1.29117 -1.865265,1.89987 -0.91519,0.99958 -1.927821,1.92129 -3.087477,2.6252 -1.499721,1.27741 -2.828527,2.79738 -4.50819,3.84111 -0.21503,0.059 -0.415419,0.204 -0.473176,0.39207 -1.042795,0.49064 -1.971322,1.20858 -2.895786,1.88963 -0.122507,0.31868 -0.533079,0.25493 -0.77562,0.48032 -0.988454,0.74969 -2.144613,1.26567 -3.205993,1.88591 -0.170094,0.63657 -0.02107,1.38079 -0.07129,2.05729 0,5.59868 0,11.19738 0,16.79607 0.17798,0.48887 0.725248,-0.0299 1.045402,-0.11041 4.323128,-2.02813 8.219761,-4.86537 11.802215,-7.99985 0.690663,-0.55157 0.499237,-1.54055 0.728104,-2.30389 1.196944,-7.06958 2.476481,-14.12646 3.587544,-21.20982 -0.01344,-0.13193 -0.131864,-0.27663 -0.280461,-0.2435 z m -11.338976,9.9302 c 0.428373,0.28575 -0.229183,0.41336 -0.03612,0.003 0.01154,-0.002 0.02418,-0.006 0.03612,-0.003 z m -0.610681,0.43619 c 0.428372,0.28575 -0.229181,0.41338 -0.03612,0.003 0.01154,-0.002 0.02418,-0.006 0.03612,-0.003 z"
       id="path4822"
       inkscape:connector-curvature="0" />
    <path
       style="opacity:1;fill:#dea108;fill-opacity:1;stroke:none;stroke-width:0.26499999;stroke-miterlimit:4;stroke-dasharray:none"
       d="m 8.0227302,254.97845 c -0.4300209,0.20341 -0.074321,0.78908 -0.094021,1.14956 0.2223195,1.38239 0.5551373,2.72128 0.7370853,4.11201 0.7322174,4.47489 1.5171505,8.97252 2.3024405,13.44801 0.296123,1.53701 0.462219,3.10434 0.827797,4.62489 0.349569,0.82978 1.227827,1.27652 1.886734,1.83594 1.566108,1.12158 3.097923,2.29428 4.610939,3.48346 1.225583,0.70672 2.497977,1.33428 3.686739,2.10673 0.915819,0.5021 1.78405,1.10439 2.747037,1.51305 0.488726,-0.0581 0.210564,-0.71327 0.296917,-1.03987 0.04149,-5.77539 0.07787,-11.5524 -0.0065,-17.32728 0.02416,-0.37795 -0.07005,-0.79896 -0.495488,-0.88472 -1.029928,-0.51769 -2.001028,-1.15646 -3.008339,-1.70274 -0.158297,-0.15515 -0.373909,-0.27317 -0.570126,-0.40536 -0.279194,0.13622 -0.157718,-0.27245 -0.449491,-0.24588 -0.18376,-0.0849 -0.296849,-0.27366 -0.493621,-0.31726 -0.121767,-0.22043 -0.454001,-0.11602 -0.48016,-0.4161 -0.173252,-0.28079 -0.525857,-0.48031 -0.82469,-0.43125 0.03368,-0.30059 -0.320106,-0.42592 -0.55803,-0.48851 -0.327166,-0.1949 -0.715075,-0.47169 -1.03173,-0.74924 -1.409819,-1.13574 -2.699996,-2.41227 -4.079037,-3.5801 -1.659419,-1.04746 -3.010911,-2.50886 -4.2004376,-4.07658 -0.2369297,-0.21622 -0.4488791,-0.60112 -0.8040241,-0.60876 z m 9.6660848,8.78858 c -0.0034,0.002 -6.09e-4,-10e-4 0,0 z"
       id="path4824"
       inkscape:connector-curvature="0" />
    <path
       style="opacity:1;fill:#b96820;fill-opacity:1;stroke:none;stroke-width:0.26499999;stroke-miterlimit:4;stroke-dasharray:none"
       d="m 26.633463,250.6743 c -1.98599,0.11934 -3.995849,-0.0877 -5.975251,0.24314 -4.245728,0.53413 -8.442981,1.58144 -12.3703538,3.29467 -0.3320228,0.0756 -0.7205812,0.4841 -0.3864583,0.7086 2.8812521,2.88625 6.1314681,5.57228 9.2869221,8.15448 2.386945,1.88219 4.804906,3.79004 7.549208,5.12869 0.54054,0.24738 1.030406,-0.32314 1.510277,-0.49979 3.603249,-2.06047 6.816288,-4.72351 9.983925,-7.38654 2.004838,-1.75942 4.021371,-3.51453 5.91685,-5.39101 0.49848,-0.4579 -0.356787,-0.65506 -0.668581,-0.81677 -2.004207,-0.90655 -4.060614,-1.74782 -6.207056,-2.24053 -1.290805,-0.34777 -2.625763,-0.5435 -3.954252,-0.68957 -0.499156,-0.27932 -1.142743,-0.0969 -1.688569,-0.21912 -1.003656,-0.0543 -1.988379,-0.32748 -2.996661,-0.28625 z"
       id="path4826"
       inkscape:connector-curvature="0"
       sodipodi:nodetypes="cccccccccccccc" />
    <path
       style="opacity:1;fill:#f5e6fa;fill-opacity:1;stroke:none;stroke-width:0.26499999;stroke-miterlimit:4;stroke-dasharray:none"
       d="m 37.22426,279.46839 c -0.832379,0.47669 -1.473157,1.24436 -2.259475,1.79784 -3.055917,2.37108 -6.285322,4.58852 -9.901468,6.02311 -3.153358,-1.21409 -5.98496,-3.12522 -8.678841,-5.13422 -1.151652,-0.83321 -2.205623,-1.79916 -3.383445,-2.5947 -0.538828,-0.007 -0.181624,0.67006 -0.167664,0.96934 0.532088,2.51032 1.02246,5.04261 1.634045,7.52753 3.152455,3.26198 6.585952,6.29644 10.490944,8.63248 0.504339,0.0317 0.894005,-0.45591 1.337215,-0.6524 3.408093,-2.22078 6.504358,-4.90891 9.305718,-7.85197 0.44795,-0.55701 0.371625,-1.35873 0.593126,-2.0156 0.443807,-2.16489 0.941994,-4.32338 1.310647,-6.50099 -0.03858,-0.13073 -0.135778,-0.23547 -0.280802,-0.20042 z"
       id="path4832"
       inkscape:connector-curvature="0" />
    <path
       style="opacity:1;fill:#fdc60d;fill-opacity:1;stroke:none;stroke-width:0.26499999;stroke-miterlimit:4;stroke-dasharray:none"
       d="m 7.9227309,255.04415 c -0.3984074,0.25651 0.2459825,1.11446 0.2172123,1.49727 1.1179429,7.21988 2.4763058,14.41602 3.8216568,21.63485 0.09145,0.49894 0.325817,1.18624 0.847735,1.42694 2.969515,2.43461 6.025576,4.79028 9.393887,6.65372 0.971144,0.52915 1.684733,0.7752 2.724814,1.13085 0.417768,-0.10187 0.436163,-0.40118 0.512286,-0.72191 0.0206,-5.94042 0.02416,-11.90169 0.02679,-17.84212 -0.26118,-0.44751 -0.909308,-0.52748 -1.320055,-0.83732 -1.908958,-1.11355 -3.712763,-2.39657 -5.476043,-3.72316 -2.220034,-1.51094 -4.01742,-3.55047 -6.195731,-5.12094 -1.374039,-1.1756 -2.45307,-2.69324 -3.8397668,-3.85059 C 8.4750014,254.99518 8.211866,255.0013 8.1574353,255.0003 Z"
       id="path4834"
       inkscape:connector-curvature="0"
       sodipodi:nodetypes="cccccccccccccc" />
    <path
       style="opacity:1;fill:#fffc63;fill-opacity:1;stroke:none;stroke-width:0.26499999;stroke-miterlimit:4;stroke-dasharray:none"
       d="m 41.791917,255.20054 c -1.57041,1.33355 -2.925341,2.92764 -4.585208,4.1669 -1.820666,1.45918 -3.454643,3.14414 -5.401916,4.44441 -0.645021,0.44128 -1.217766,0.98308 -1.872058,1.38227 -0.460918,0.45441 -1.122755,0.71886 -1.651083,1.13139 -1.046261,0.71969 -2.180898,1.32337 -3.25587,1.97608 -0.15206,0.72864 -0.01801,1.54755 -0.06334,2.30957 0.01487,5.50274 -0.03558,11.00719 0.04788,16.50882 0.259832,0.42896 0.748139,-0.0984 1.088622,-0.16556 4.271439,-1.97647 8.084137,-4.81751 11.64364,-7.86819 0.409846,-0.2438 0.556274,-0.66726 0.577525,-1.12357 1.289356,-7.48813 2.603885,-14.97488 3.840529,-22.47041 -0.0088,-0.18174 -0.176339,-0.35479 -0.368724,-0.29171 z"
       id="path4836"
       inkscape:connector-curvature="0" />
    <path
       style="opacity:1;fill:#fdc60d;fill-opacity:1;stroke:none;stroke-width:0.26499999;stroke-miterlimit:4;stroke-dasharray:none;stroke-opacity:1"
       d="m 23.195655,292.22592 c -0.255293,-3e-5 -0.502154,0.11868 -0.671457,0.30791 -0.109343,0.12431 -0.213459,0.26089 -0.266076,0.41969 -0.102886,0.33355 -0.01,0.69203 0.141811,0.99527 0.239808,0.46993 0.603234,0.86305 0.985164,1.2213 0.507941,0.46813 1.068908,0.87655 1.653878,1.24268 0.04015,0.0294 0.09556,0.0382 0.135348,0.003 0.531535,-0.33723 1.046037,-0.70422 1.518781,-1.12061 0.433316,-0.39109 0.852479,-0.81816 1.120883,-1.34273 0.153969,-0.30351 0.245931,-0.66356 0.142756,-0.99808 -0.07018,-0.19841 -0.203801,-0.37057 -0.359045,-0.51036 -0.187237,-0.16679 -0.445464,-0.23701 -0.69275,-0.21515 -0.360539,0.0281 -0.68678,0.20957 -0.981174,0.40723 -0.29788,0.20697 -0.815567,0.71733 -0.815567,0.71733 0,0 -0.589912,-0.57357 -0.934296,-0.79638 -0.293688,-0.18221 -0.625083,-0.33779 -0.978256,-0.3311 z"
       id="path6879"
       inkscape:connector-curvature="0"
       sodipodi:nodetypes="ccccccccccccccccc" />
  </g>
  <g
     inkscape:groupmode="layer"
     id="layer3"
     inkscape:label="Layer 3"
     style="display:inline"
     transform="translate(0,-240.47)">
    <path
       style="color:#000000;font-style:normal;font-variant:normal;font-weight:normal;font-stretch:normal;font-size:medium;line-height:normal;font-family:sans-serif;font-variant-ligatures:normal;font-variant-position:normal;font-variant-caps:normal;font-variant-numeric:normal;font-variant-alternates:normal;font-feature-settings:normal;text-indent:0;text-align:start;text-decoration:none;text-decoration-line:none;text-decoration-style:solid;text-decoration-color:#000000;letter-spacing:normal;word-spacing:normal;text-transform:none;writing-mode:lr-tb;direction:ltr;text-orientation:mixed;dominant-baseline:auto;baseline-shift:baseline;text-anchor:start;white-space:normal;shape-padding:0;clip-rule:nonzero;display:inline;overflow:visible;visibility:visible;opacity:1;isolation:auto;mix-blend-mode:normal;color-interpolation:sRGB;color-interpolation-filters:linearRGB;solid-color:#000000;solid-opacity:1;vector-effect:none;fill:#724a00;fill-opacity:1;fill-rule:evenodd;stroke:#724a00;stroke-width:0.26499999;stroke-linecap:butt;stroke-linejoin:miter;stroke-miterlimit:4;stroke-dasharray:none;stroke-dashoffset:0;stroke-opacity:1;color-rendering:auto;image-rendering:auto;shape-rendering:auto;text-rendering:auto;enable-background:accumulate"
       d="m 23.854672,250.56128 c -9.359415,0.41148 -16.2589746,3.8692 -16.2589746,3.8692 l 4.1514156,24.30302 0.03711,0.0293 c 0.216259,0.18081 0.470083,0.35341 0.689461,0.53517 l 1.876975,8.79111 0.02539,0.0274 c 0,0 5.398798,5.77555 10.66223,8.69735 l 0.06445,0.0352 0.06445,-0.0352 c 5.263432,-2.9218 10.660277,-8.69735 10.660277,-8.69735 l 0.02539,-0.0274 1.8643,-8.85228 c -0.01853,-0.0417 0.518539,-0.4779 0.518539,-0.4779 l 0.0332,-0.0293 4.111897,-24.25751 c -6.511033,-3.38323 -12.926308,-4.15701 -18.526114,-3.91081 z m 0.0098,0.26564 c 5.536628,-0.2434 11.955632,0.59504 18.340051,3.83596 l -0.04297,0.041 c 0,0 -2.699882,2.61228 -6.203195,5.60749 -3.484968,2.9795 -7.764231,6.32557 -10.951296,7.8536 -3.186073,-1.52791 -7.429415,-4.88786 -10.87903,-7.88096 -3.467821,-3.00888 -6.2021889,-5.71519 -6.2021889,-5.71519 0.079131,-0.0394 6.7527599,-3.33815 15.9386279,-3.74193 z m -15.9630731,4.09379 c 0.077991,0.0768 2.6298621,2.59456 6.0528041,5.56452 3.450929,2.99422 7.68377,6.35122 10.921998,7.90829 l 0.02734,18.75411 c -4.664981,-1.92374 -9.037771,-5.32091 -12.912256,-8.55869 z m 34.1566391,0.23242 -4.035201,23.43971 c -0.05299,0.0487 -6.593123,6.03939 -12.853663,8.56455 l -0.0293,-18.76582 c 3.237876,-1.55699 7.505029,-4.89918 10.990359,-7.87901 3.347858,-2.8623 5.693254,-5.13318 5.927802,-5.35943 z m -4.6231,24.26395 -1.822287,8.53915 c -0.03485,0.0372 -5.346099,5.69474 -10.509884,8.58408 -5.16146,-2.88804 -10.468328,-8.53988 -10.507932,-8.58212 l -1.796895,-8.40831 c 3.698548,3.04859 7.776778,6.16741 12.189592,7.9454 l 0.04882,0.0195 0.04884,-0.0195 c 5.802723,-2.27869 11.239286,-7.08125 12.349748,-8.0782 z"
       id="path4724"
       inkscape:connector-curvature="0"
       sodipodi:nodetypes="scccccccccccccccscccscsccccsccccccccccccccccccccc" />
  </g>
  <g
     inkscape:groupmode="layer"
     id="layer6"
     inkscape:label="Layer 5"
     style="display:inline"
     transform="translate(0,-240.47)">
    <path
       style="fill:none;fill-opacity:1;fill-rule:evenodd;stroke:#945500;stroke-width:0.465;stroke-linecap:butt;stroke-linejoin:miter;stroke-miterlimit:4;stroke-dasharray:none;stroke-opacity:1"
       d="m 27.990927,292.83993 c -0.941469,-1.75596 -2.883094,0.40968 -2.883094,0.40968 v 0 c 0,0 -1.941624,-2.16564 -2.883093,-0.40968 -0.409032,0.99046 0.770915,2.38516 2.883093,3.70038 2.11218,-1.31522 3.292125,-2.70992 2.883094,-3.70038 z"
       id="path6858-3"
       inkscape:connector-curvature="0"
       sodipodi:nodetypes="cccccc" />
  </g>
</svg>
